<svg xmlns="http://www.w3.org/2000/svg" width="430" height="430" style="width:100%;height:100%;transform:translate3d(0,0,0);content-visibility:visible" viewBox="0 0 430 430"><defs><clipPath id="a"><path d="M0 0h430v430H0z"/></clipPath><clipPath id="i"><path d="M0 0h430v430H0z"/></clipPath><clipPath id="h"><path d="M0 0h430v430H0z"/></clipPath><clipPath id="g"><path d="M0 0h430v430H0z"/></clipPath><clipPath id="f"><path d="M0 0h430v430H0z"/></clipPath><clipPath id="e"><path d="M0 0h430v430H0z"/></clipPath><clipPath id="d"><path d="M0 0h430v430H0z"/></clipPath><clipPath id="c"><path d="M0 0h430v430H0z"/></clipPath><clipPath id="b"><path d="M0 0h430v430H0z"/></clipPath></defs><g fill="none" clip-path="url(#a)"><g clip-path="url(#b)" style="display:none"><path class="primary" style="display:none"/><path class="primary" style="display:none"/><path class="secondary" style="display:none"/><path class="secondary" style="display:none"/><path class="secondary" style="display:none"/></g><g clip-path="url(#c)" style="display:none"><path class="secondary" style="display:none"/><path class="secondary" style="display:none"/><path class="primary" style="display:none"/><path class="primary" style="display:none"/><path class="secondary" style="display:none"/></g><g clip-path="url(#d)" style="display:none"><path class="primary" style="display:none"/><path class="primary" style="display:none"/><path class="secondary" style="display:none"/><path class="secondary" style="display:none"/></g><g clip-path="url(#e)" style="display:none"><path class="primary" style="display:none"/><path class="primary" style="display:none"/><path class="secondary" style="display:none"/><path class="secondary" style="display:none"/></g><g stroke-width="12" clip-path="url(#f)" style="display:block"><path stroke="#121330" d="M0-145c80.081 0 145 64.919 145 145S80.081 145 0 145-145 80.081-145 0-80.081-145 0-145z" class="primary" style="display:block" transform="translate(194.936 193.939)"/><path stroke="#121330" stroke-linecap="round" d="M56.922 0H-56.922" class="primary" style="display:block" transform="rotate(45 -238.429 575.618)"/><path stroke="#07A889" stroke-linecap="round" stroke-linejoin="round" d="M-117.892-52.795c5.743-14.235 14.383-27.574 25.922-39.113 45.944-45.944 120.434-45.944 166.378 0q0 0 0 0c26.937 26.937 38.081 63.687 33.431 98.743" class="secondary" style="display:block" transform="translate(204.352 203.294)"/></g><g clip-path="url(#g)" style="display:none"><path class="primary" style="display:none"/><path class="primary" style="display:none"/><path class="secondary" style="display:none"/></g><g clip-path="url(#h)" style="display:none"><path class="primary" style="display:none"/><path class="primary" style="display:none"/><path class="secondary" style="display:none"/></g><g clip-path="url(#i)" style="display:none"><path class="primary" style="display:none"/><path class="primary" style="display:none"/><path class="secondary" style="display:none"/></g></g></svg>